<svg viewBox="0 0 500 157.76" xmlns="http://www.w3.org/2000/svg" id="Assets">
  <defs>
    
  </defs>
  <path d="M260.82,49.68v62.09c0,3.22-2.61,5.83-5.83,5.83s-5.83-2.61-5.83-5.83v-62.09c0-2.84,2.03-5.21,4.73-5.72.27-.08.55-.12.84-.12.11,0,.22,0,.32.02,3.19.03,5.77,2.63,5.77,5.83ZM448.02,50.28l-6.47,52.78h14.19l-6.52-52.78h-1.19ZM324.28,43.85c-.11-.01-.21-.02-.32-.02-.29,0-.57.04-.84.12-2.69.51-4.73,2.88-4.73,5.72v62.09c0,3.22,2.61,5.83,5.83,5.83s5.83-2.61,5.83-5.83v-62.09c0-3.2-2.58-5.79-5.77-5.83ZM500,5.01v147.75c0,2.76-2.24,5.01-5.01,5.01H158.78V0h336.21c2.76,0,5.01,2.24,5.01,5.01ZM216.11,28.51h-27.7v75.77c0,3.37-.52,5.63-1.57,6.79-.93,1.05-3.08,1.57-6.44,1.57h-5.05v18.81c.93.12,2.5.17,4.7.17h4.7c7.43,0,13.41-.75,17.94-2.26,4.64-1.63,8.01-4.47,10.1-8.54,2.21-4.06,3.31-9.75,3.31-17.07V28.51ZM286.08,50.45c0-5.81-1.34-10.39-4.01-13.76-2.67-3.48-6.39-5.98-11.15-7.49-4.64-1.51-10.05-2.26-16.2-2.26s-11.55.75-16.2,2.26c-4.64,1.51-8.24,4.01-10.8,7.49-2.55,3.37-3.83,7.95-3.83,13.76v50.86c0,9.17,1.28,16.08,3.83,20.73,2.56,4.64,6.16,7.72,10.8,9.23,4.64,1.51,10.05,2.26,16.2,2.26s11.55-.75,16.2-2.26c4.76-1.51,8.48-4.59,11.15-9.23,2.67-4.64,4.01-11.61,4.01-20.9v-50.69ZM355.31,50.45c0-5.81-1.34-10.39-4.01-13.76-2.67-3.48-6.39-5.98-11.15-7.49-4.65-1.51-10.05-2.26-16.2-2.26s-11.55.75-16.2,2.26c-4.65,1.51-8.25,4.01-10.8,7.49-2.55,3.37-3.83,7.95-3.83,13.76v50.86c0,9.17,1.28,16.08,3.83,20.73,2.55,4.64,6.15,7.72,10.8,9.23,4.64,1.51,10.04,2.26,16.2,2.26s11.55-.75,16.2-2.26c4.76-1.51,8.48-4.59,11.15-9.23,2.67-4.64,4.01-11.61,4.01-20.9v-50.69ZM409.57,112.64h-18.99V28.51h-27.35v102.95h46.33v-18.81ZM483.73,131.45l-14.46-102.95h-40.93l-14.81,102.95h23.93l2.08-14.98h18.4l2.09,14.98h23.69ZM72.86,85.92h-23.82c-1.35,0-2.59.74-3.22,1.94l-19.98,38.29c-1.26,2.41.49,5.3,3.21,5.3h100.68c2.72,0,4.47-2.88,3.22-5.3L82.7,29.46c-1.36-2.62-5.11-2.6-6.45.03l-10.46,20.57c-.53,1.04-.52,2.27.01,3.3l25.52,49.48c.53,1.04-.22,2.27-1.38,2.27h-21.02c-1.16,0-1.91-1.23-1.38-2.27l7.16-13.9c.71-1.38-.29-3.02-1.84-3.02ZM154.78,4v149.76H5.01c-.55,0-1.01-.45-1.01-1.01V5.01c0-.55.45-1.01,1.01-1.01h149.78M158.78,0H5.01C2.24,0,0,2.24,0,5.01v147.75C0,155.52,2.24,157.76,5.01,157.76h153.78V0h0Z" class="cls-1"></path>
</svg>